<mxfile host="app.diagrams.net" modified="2020-08-19T06:19:56.666Z" agent="5.0 (Macintosh; Intel Mac OS X 10_15_5) AppleWebKit/537.36 (KHTML, like Gecko) Chrome/84.0.4147.125 Safari/537.36" etag="-EDBZug2wjNbI9fZ4no8" version="13.6.2" type="github">
  <diagram id="Rjo_ltDNnTps3v7C-S7p" name="Page-1">
    <mxGraphModel dx="2066" dy="1105" grid="1" gridSize="10" guides="1" tooltips="1" connect="1" arrows="1" fold="1" page="1" pageScale="1" pageWidth="827" pageHeight="1169" math="0" shadow="0">
      <root>
        <mxCell id="0" />
        <mxCell id="1" parent="0" />
        <mxCell id="PeEjYPiqV87T0GeIP1ht-1" style="edgeStyle=orthogonalEdgeStyle;rounded=0;orthogonalLoop=1;jettySize=auto;html=1;curved=1;entryX=0;entryY=0.25;entryDx=0;entryDy=0;strokeWidth=2;fillColor=#f8cecc;strokeColor=#b85450;" edge="1" parent="1" source="PeEjYPiqV87T0GeIP1ht-2" target="PeEjYPiqV87T0GeIP1ht-4">
          <mxGeometry relative="1" as="geometry" />
        </mxCell>
        <mxCell id="PeEjYPiqV87T0GeIP1ht-2" value="&lt;font style=&quot;font-size: 16px&quot;&gt;Processor&lt;/font&gt;" style="rounded=0;whiteSpace=wrap;html=1;fillColor=#dae8fc;strokeColor=#6c8ebf;" vertex="1" parent="1">
          <mxGeometry x="160" y="290" width="120" height="140" as="geometry" />
        </mxCell>
        <mxCell id="PeEjYPiqV87T0GeIP1ht-3" style="edgeStyle=orthogonalEdgeStyle;curved=1;rounded=0;orthogonalLoop=1;jettySize=auto;html=1;entryX=1;entryY=0.75;entryDx=0;entryDy=0;strokeWidth=2;fillColor=#f8cecc;strokeColor=#b85450;" edge="1" parent="1" source="PeEjYPiqV87T0GeIP1ht-4" target="PeEjYPiqV87T0GeIP1ht-2">
          <mxGeometry relative="1" as="geometry" />
        </mxCell>
        <mxCell id="PeEjYPiqV87T0GeIP1ht-9" style="edgeStyle=orthogonalEdgeStyle;rounded=0;orthogonalLoop=1;jettySize=auto;html=1;curved=1;strokeWidth=2;fillColor=#f8cecc;strokeColor=#b85450;" edge="1" parent="1" source="PeEjYPiqV87T0GeIP1ht-4" target="PeEjYPiqV87T0GeIP1ht-7">
          <mxGeometry relative="1" as="geometry" />
        </mxCell>
        <mxCell id="PeEjYPiqV87T0GeIP1ht-4" value="10" style="rounded=0;whiteSpace=wrap;html=1;fillColor=#dae8fc;strokeColor=#6c8ebf;" vertex="1" parent="1">
          <mxGeometry x="500" y="440" width="120" height="60" as="geometry" />
        </mxCell>
        <mxCell id="PeEjYPiqV87T0GeIP1ht-5" value="&lt;font style=&quot;font-size: 16px&quot;&gt;Memory&lt;/font&gt;" style="text;html=1;align=center;verticalAlign=middle;resizable=0;points=[];autosize=1;" vertex="1" parent="1">
          <mxGeometry x="525" y="410" width="70" height="20" as="geometry" />
        </mxCell>
        <mxCell id="PeEjYPiqV87T0GeIP1ht-6" value="20" style="text;html=1;strokeColor=none;fillColor=none;align=center;verticalAlign=middle;whiteSpace=wrap;rounded=0;" vertex="1" parent="1">
          <mxGeometry x="240" y="410" width="40" height="20" as="geometry" />
        </mxCell>
        <mxCell id="PeEjYPiqV87T0GeIP1ht-10" style="edgeStyle=orthogonalEdgeStyle;rounded=0;orthogonalLoop=1;jettySize=auto;html=1;entryX=0;entryY=0.75;entryDx=0;entryDy=0;curved=1;strokeWidth=2;fillColor=#f8cecc;strokeColor=#b85450;" edge="1" parent="1" source="PeEjYPiqV87T0GeIP1ht-7" target="PeEjYPiqV87T0GeIP1ht-4">
          <mxGeometry relative="1" as="geometry">
            <Array as="points">
              <mxPoint x="390" y="560" />
              <mxPoint x="390" y="485" />
            </Array>
          </mxGeometry>
        </mxCell>
        <mxCell id="PeEjYPiqV87T0GeIP1ht-7" value="&lt;font style=&quot;font-size: 16px&quot;&gt;Processor&lt;/font&gt;" style="rounded=0;whiteSpace=wrap;html=1;fillColor=#dae8fc;strokeColor=#6c8ebf;" vertex="1" parent="1">
          <mxGeometry x="160" y="470" width="120" height="140" as="geometry" />
        </mxCell>
        <mxCell id="PeEjYPiqV87T0GeIP1ht-8" value="30" style="text;html=1;strokeColor=none;fillColor=none;align=center;verticalAlign=middle;whiteSpace=wrap;rounded=0;" vertex="1" parent="1">
          <mxGeometry x="250" y="590" width="40" height="20" as="geometry" />
        </mxCell>
      </root>
    </mxGraphModel>
  </diagram>
</mxfile>
